{
.appVersion = "3208";
.formatVersion = 3;
DisplayStrings = (
"/_stem 𜼃  𜼏  𜼄  𜼐
/_stem/_lilcoma/_lilcoma 𜼥𜼏𜼑𜼒𜼓𜼔𜼂𜼅𜼆𜼇𜼈𜼎𜼐𜼠𜼡𜼢𜼣𜼤𜼥𜼦𜼒𜼧𜼨𜼩𜼪𜼫𜼬
𜼭𜼃𜼀𜼁𜼌𜼍𜼘𜼙𜼛𜼝
𜼉𜼊𜼋𜼕𜼖𜼗
𜼚𜼜𜼞𜼟

𜼰𜼱𜼲𜼳𜼴𜼵𜼶𜼷𜼸𜼹𜼺𜼻𜼼𜼽𜼵𜼾𜼶𜼿𜽀◌𜽁𜽂𜽃𜽄𜼭𜽅𜽆
/_vert.stem 𜼿𜽛𜽫𜽬𜽭𜽯/_steep.rombus 𜽽𜽾𜽿𜽀𜽀𜾀𜾄𜾁/_revs 𜾂𜾃𜾄𜾅𜾿𜿀𜿁𜿂𜽜𜽝
𜽑𜽴𜿃 𜽒𜽓𜽔𜽕𜽸 
𜽰𜽱𜽲𜽳𜽵𜽶𜽷𜽹𜽺𜽻𜽼
𜽞𜽟𜽠𜽡𜽢𜽣𜽤𜽥𜽦𜽧𜽨𜽩𜽪
𜾉𜾊𜾌𜾍𜾎𜾏𜾓𜾵𜾶
𜾆𜾇𜾈𜾐𜾑𜾒𜾔𜾕𜾖𜾗𜾘𜾙𜾚𜾛𜾜𜾝𜾞𜾟
/_arch2 𜾠𜾡𜾸
𜾢𜾣𜾤𜾹𜾺𜾻
𜾥𜾦𜾼𜾽

𜾧𜾨𜾩𜾪𜾫
𜾬𜾭𜾮𜾾
𜽖𜽗𜽘𜽙𜾲𜾯𜾰𜾱𜾳𜾴𜽚𜽛

𜽮𜾷",
"𜼚",
"/_vert.stem 𜽐"
);
date = "2022-04-03 17:04:08 +0000";
familyName = "Noto Znammeny Musical Notation";
featurePrefixes = (
{
automatic = 1;
code = "languagesystem DFLT dflt;
";
name = Languagesystems;
}
);
fontMaster = (
{
guides = (
{
locked = 1;
pos = (0,557);
},
{
pos = (36,715);
},
{
locked = 1;
pos = (0,93);
},
{
pos = (0,244);
}
);
id = m01;
metricValues = (
{
over = 16;
pos = 800;
},
{
over = 16;
pos = 700;
},
{
over = 16;
pos = 500;
},
{
over = -16;
},
{
over = -16;
pos = -200;
},
{
over = -16;
}
);
name = Regular;
}
);
glyphs = (
{
color = 0;
glyphname = u1CF02;
lastChange = "2023-08-07 16:54:53 +0000";
layers = (
{
layerId = m01;
shapes = (
{
alignment = -1;
ref = _stem;
},
{
closed = 1;
nodes = (
(309,409,l),
(309,394,l),
(496,394,l),
(472,369,o),
(441,328,o),
(427,297,c),
(461,288,l),
(474,329,o),
(488,361,o),
(519,402,c),
(515,409,l)
);
},
{
alignment = -1;
pos = (106,0);
ref = _stem;
}
);
width = 600;
}
);
unicode = 118530;
},
{
color = 0;
glyphname = u1CF03;
lastChange = "2023-08-07 16:54:53 +0000";
layers = (
{
layerId = m01;
shapes = (
{
closed = 1;
nodes = (
(316,544,l),
(373,542,o),
(426,542,o),
(475,544,c),
(476,559,l),
(419,557,o),
(365,557,o),
(316,559,c)
);
},
{
closed = 1;
nodes = (
(437,536,o),
(437,524,o),
(436,512,c),
(449,508,o),
(460,504,o),
(476,502,c),
(475,517,o),
(475,533,o),
(476,559,c),
(437,548,l)
);
},
{
ref = _stem;
}
);
width = 600;
}
);
unicode = 118531;
},
{
color = 0;
glyphname = u1CF04;
lastChange = "2023-08-07 16:54:53 +0000";
layers = (
{
layerId = m01;
shapes = (
{
closed = 1;
nodes = (
(344,470,l),
(374,471,o),
(407,471,o),
(443,470,c),
(443,487,l),
(413,486,o),
(380,486,o),
(344,487,c)
);
},
{
alignment = -1;
pos = (-16,0);
ref = _stem;
},
{
alignment = -1;
pos = (90,0);
ref = _stem;
}
);
width = 600;
}
);
unicode = 118532;
},
{
color = 0;
glyphname = u1CF11;
lastChange = "2023-08-07 16:54:53 +0000";
layers = (
{
layerId = m01;
shapes = (
{
closed = 1;
nodes = (
(376,441,o),
(391,454,o),
(391,474,cs),
(391,494,o),
(376,507,o),
(358,507,cs),
(340,507,o),
(325,494,o),
(325,474,cs),
(325,454,o),
(340,441,o),
(358,441,cs)
);
}
);
width = 600;
}
);
unicode = 118545;
},
{
color = 0;
glyphname = u1CF12;
lastChange = "2023-08-07 16:54:53 +0000";
layers = (
{
layerId = m01;
shapes = (
{
closed = 1;
nodes = (
(454,440,l),
(441,480,o),
(431,520,o),
(422,560,c),
(410,556,o),
(398,553,o),
(386,551,c),
(359,502,o),
(331,454,o),
(304,411,c),
(318,402,l),
(344,451,o),
(373,499,o),
(401,545,c),
(387,548,l),
(401,500,o),
(413,453,o),
(423,405,c),
(436,400,l),
(465,449,o),
(493,499,o),
(522,548,c),
(508,546,l),
(522,497,o),
(534,448,o),
(544,399,c),
(581,405,l),
(568,457,o),
(554,508,o),
(543,560,c),
(531,556,o),
(519,553,o),
(507,551,c),
(485,513,o),
(464,477,o),
(441,441,c)
);
}
);
width = 600;
}
);
unicode = 118546;
},
{
color = 0;
glyphname = u1CF13;
lastChange = "2023-08-07 16:54:53 +0000";
layers = (
{
layerId = m01;
shapes = (
{
alignment = -1;
ref = _stem;
},
{
alignment = -1;
pos = (106,0);
ref = _stem;
},
{
closed = 1;
nodes = (
(314,541,l),
(391,542,o),
(457,542,o),
(514,541,c),
(514,558,l),
(437,557,o),
(371,557,o),
(314,558,c)
);
}
);
width = 600;
}
);
unicode = 118547;
},
{
color = 0;
glyphname = u1CF14;
lastChange = "2023-08-07 16:54:53 +0000";
layers = (
{
layerId = m01;
shapes = (
{
alignment = -1;
ref = _stem;
},
{
alignment = -1;
pos = (106,0);
ref = _stem;
},
{
closed = 1;
nodes = (
(310,541,l),
(387,542,o),
(453,542,o),
(510,541,c),
(510,558,l),
(433,557,o),
(367,557,o),
(310,558,c)
);
},
{
closed = 1;
nodes = (
(310,393,l),
(387,394,o),
(453,394,o),
(510,393,c),
(510,410,l),
(433,409,o),
(367,409,o),
(310,410,c)
);
}
);
width = 600;
},
{
associatedMasterId = m01;
layerId = "B9CEEA8F-9A0A-470B-92A7-2138B6A5F96B";
name = "18 Jul 23 at 11:25";
shapes = (
{
alignment = -1;
ref = _stem;
},
{
alignment = -1;
pos = (106,0);
ref = _stem;
},
{
closed = 1;
nodes = (
(314,542,l),
(514,542,l),
(514,557,l),
(314,557,l)
);
},
{
closed = 1;
nodes = (
(306,394,l),
(506,394,l),
(506,409,l),
(306,409,l)
);
}
);
width = 600;
}
);
unicode = 118548;
},
{
color = 0;
glyphname = u1CF20;
lastChange = "2023-08-07 16:54:53 +0000";
layers = (
{
associatedMasterId = m01;
background = {
shapes = (
{
closed = 1;
nodes = (
(370,467,o),
(382,486,o),
(402,486,cs),
(416,486,o),
(430,476,o),
(430,455,cs),
(430,437,o),
(415,431,o),
(396,431,cs),
(380,431,o),
(364,437,o),
(350,437,cs),
(342,437,o),
(333,436,o),
(327,429,cs),
(320,421,o),
(318,411,o),
(317,411,c),
(317,409,o),
(319,409,o),
(320,409,c),
(321,409,l),
(328,415,o),
(334,421,o),
(347,421,cs),
(364,421,o),
(380,416,o),
(397,416,cs),
(430,416,o),
(461,429,o),
(461,462,cs),
(461,490,o),
(440,508,o),
(419,508,cs),
(397,508,o),
(380,488,o),
(364,488,cs),
(346,488,o),
(338,500,o),
(338,515,cs),
(338,530,o),
(350,540,o),
(367,540,cs),
(376,540,o),
(384,538,o),
(387,530,c),
(388,529,o),
(395,529,o),
(395,530,c),
(396,537,o),
(395,550,o),
(402,555,c),
(403,556,o),
(402,561,o),
(400,561,c),
(396,561,o),
(390,558,o),
(383,555,c),
(376,551,o),
(365,552,o),
(357,551,c),
(335,549,o),
(311,531,o),
(311,507,cs),
(311,486,o),
(331,467,o),
(352,467,cs)
);
},
{
closed = 1;
nodes = (
(370,467,o),
(382,486,o),
(402,486,cs),
(416,486,o),
(430,476,o),
(430,455,cs),
(430,437,o),
(415,431,o),
(396,431,cs),
(380,431,o),
(364,437,o),
(350,437,cs),
(342,437,o),
(333,436,o),
(327,429,cs),
(320,421,o),
(318,411,o),
(317,411,c),
(317,409,o),
(319,409,o),
(320,409,c),
(321,409,l),
(328,415,o),
(334,421,o),
(347,421,cs),
(364,421,o),
(380,416,o),
(397,416,cs),
(430,416,o),
(461,429,o),
(461,462,cs),
(461,490,o),
(440,508,o),
(419,508,cs),
(397,508,o),
(380,488,o),
(364,488,cs),
(346,488,o),
(338,500,o),
(338,515,cs),
(338,530,o),
(350,540,o),
(367,540,cs),
(376,540,o),
(384,538,o),
(387,530,c),
(388,529,o),
(395,529,o),
(395,530,c),
(396,537,o),
(395,550,o),
(402,555,c),
(403,556,o),
(402,561,o),
(400,561,c),
(396,561,o),
(390,558,o),
(383,555,c),
(376,551,o),
(365,552,o),
(357,551,c),
(335,549,o),
(311,531,o),
(311,507,cs),
(311,486,o),
(331,467,o),
(352,467,cs)
);
}
);
};
layerId = "1F6BD299-E3BC-4801-A42D-FF05FEEA3574";
name = "14 Jul 23 at 11:31";
shapes = (
{
closed = 1;
nodes = (
(370,467,o),
(382,486,o),
(402,486,cs),
(416,486,o),
(430,476,o),
(430,455,cs),
(430,437,o),
(415,431,o),
(396,431,cs),
(380,431,o),
(364,437,o),
(350,437,cs),
(342,437,o),
(333,436,o),
(327,429,cs),
(320,421,o),
(318,411,o),
(317,411,c),
(317,409,o),
(319,409,o),
(320,409,c),
(321,409,l),
(328,415,o),
(334,421,o),
(347,421,cs),
(364,421,o),
(380,416,o),
(397,416,cs),
(430,416,o),
(461,429,o),
(461,462,cs),
(461,490,o),
(440,508,o),
(419,508,cs),
(397,508,o),
(380,488,o),
(364,488,cs),
(346,488,o),
(338,500,o),
(338,515,cs),
(338,530,o),
(350,540,o),
(367,540,cs),
(376,540,o),
(384,538,o),
(387,530,c),
(388,529,o),
(395,529,o),
(395,530,c),
(396,537,o),
(395,550,o),
(402,555,c),
(403,556,o),
(402,561,o),
(400,561,c),
(396,561,o),
(390,558,o),
(383,555,c),
(376,551,o),
(365,552,o),
(357,551,c),
(335,549,o),
(311,531,o),
(311,507,cs),
(311,486,o),
(331,467,o),
(352,467,cs)
);
},
{
closed = 1;
nodes = (
(370,467,o),
(382,486,o),
(402,486,cs),
(416,486,o),
(430,476,o),
(430,455,cs),
(430,437,o),
(415,431,o),
(396,431,cs),
(380,431,o),
(364,437,o),
(350,437,cs),
(342,437,o),
(333,436,o),
(327,429,cs),
(320,421,o),
(318,411,o),
(317,411,c),
(317,409,o),
(319,409,o),
(320,409,c),
(321,409,l),
(328,415,o),
(334,421,o),
(347,421,cs),
(364,421,o),
(380,416,o),
(397,416,cs),
(430,416,o),
(461,429,o),
(461,462,cs),
(461,490,o),
(440,508,o),
(419,508,cs),
(397,508,o),
(380,488,o),
(364,488,cs),
(346,488,o),
(338,500,o),
(338,515,cs),
(338,530,o),
(350,540,o),
(367,540,cs),
(376,540,o),
(384,538,o),
(387,530,c),
(388,529,o),
(395,529,o),
(395,530,c),
(396,537,o),
(395,550,o),
(402,555,c),
(403,556,o),
(402,561,o),
(400,561,c),
(396,561,o),
(390,558,o),
(383,555,c),
(376,551,o),
(365,552,o),
(357,551,c),
(335,549,o),
(311,531,o),
(311,507,cs),
(311,486,o),
(331,467,o),
(352,467,cs)
);
}
);
width = 600;
},
{
associatedMasterId = m01;
background = {
shapes = (
{
closed = 1;
nodes = (
(370,467,o),
(382,486,o),
(402,486,cs),
(416,486,o),
(430,476,o),
(430,455,cs),
(430,437,o),
(415,431,o),
(396,431,cs),
(380,431,o),
(364,437,o),
(350,437,cs),
(342,437,o),
(333,436,o),
(327,429,cs),
(320,421,o),
(318,411,o),
(317,411,c),
(317,409,o),
(319,409,o),
(320,409,c),
(321,409,l),
(328,415,o),
(334,421,o),
(347,421,cs),
(364,421,o),
(380,416,o),
(397,416,cs),
(430,416,o),
(461,429,o),
(461,462,cs),
(461,490,o),
(440,508,o),
(419,508,cs),
(397,508,o),
(380,488,o),
(364,488,cs),
(346,488,o),
(338,500,o),
(338,515,cs),
(338,530,o),
(350,540,o),
(367,540,cs),
(376,540,o),
(384,538,o),
(387,530,c),
(388,529,o),
(395,529,o),
(395,530,c),
(396,537,o),
(395,550,o),
(402,555,c),
(403,556,o),
(402,561,o),
(400,561,c),
(396,561,o),
(390,558,o),
(383,555,c),
(376,551,o),
(365,552,o),
(357,551,c),
(335,549,o),
(311,531,o),
(311,507,cs),
(311,486,o),
(331,467,o),
(352,467,cs)
);
},
{
closed = 1;
nodes = (
(370,467,o),
(382,486,o),
(402,486,cs),
(416,486,o),
(430,476,o),
(430,455,cs),
(430,437,o),
(415,431,o),
(396,431,cs),
(380,431,o),
(364,437,o),
(350,437,cs),
(342,437,o),
(333,436,o),
(327,429,cs),
(320,421,o),
(318,411,o),
(317,411,c),
(317,409,o),
(319,409,o),
(320,409,c),
(321,409,l),
(328,415,o),
(334,421,o),
(347,421,cs),
(364,421,o),
(380,416,o),
(397,416,cs),
(430,416,o),
(461,429,o),
(461,462,cs),
(461,490,o),
(440,508,o),
(419,508,cs),
(397,508,o),
(380,488,o),
(364,488,cs),
(346,488,o),
(338,500,o),
(338,515,cs),
(338,530,o),
(350,540,o),
(367,540,cs),
(376,540,o),
(384,538,o),
(387,530,c),
(388,529,o),
(395,529,o),
(395,530,c),
(396,537,o),
(395,550,o),
(402,555,c),
(403,556,o),
(402,561,o),
(400,561,c),
(396,561,o),
(390,558,o),
(383,555,c),
(376,551,o),
(365,552,o),
(357,551,c),
(335,549,o),
(311,531,o),
(311,507,cs),
(311,486,o),
(331,467,o),
(352,467,cs)
);
}
);
};
layerId = "90E0C1BA-D0D9-46BC-91C6-4C78F77F6C32";
name = "14 Jul 23 at 11:33";
shapes = (
{
closed = 1;
nodes = (
(447,543,o),
(444,525,o),
(420,514,c),
(405,532,o),
(392,542,o),
(369,542,cs),
(352,542,o),
(341,534,o),
(341,521,cs),
(341,509,o),
(352,499,o),
(391,496,cs),
(440,492,o),
(464,478,o),
(464,446,cs),
(464,413,o),
(440,399,o),
(402,399,cs),
(375,399,o),
(365,406,o),
(344,406,cs),
(336,406,o),
(330,405,o),
(323,403,c),
(313,424,o),
(323,440,o),
(343,440,cs),
(374,440,o),
(387,416,o),
(417,416,cs),
(432,416,o),
(444,422,o),
(444,435,cs),
(444,453,o),
(427,460,o),
(393,463,cs),
(340,467,o),
(320,484,o),
(320,512,cs),
(320,541,o),
(343,560,o),
(386,560,cs),
(397,560,o),
(418,557,o),
(428,552,cs)
);
}
);
width = 600;
},
{
layerId = m01;
name = Regular;
shapes = (
{
closed = 1;
nodes = (
(411,559,o),
(411,546,cs),
(411,540,o),
(407,533,o),
(398,525,c),
(386,532,o),
(374,538,o),
(356,538,cs),
(337,538,o),
(323,531,o),
(323,515,cs),
(323,498,o),
(346,495,o),
(375,501,cs),
(427,511,o),
(463,500,o),
(463,457,cs),
(463,413,o),
(419,405,o),
(382,404,cs),
(359,403,o),
(347,401,o),
(328,390,c),
(322,396,o),
(319,403,o),
(319,409,cs),
(319,427,o),
(342,432,o),
(358,432,cs),
(379,432,o),
(389,425,o),
(410,425,cs),
(428,425,o),
(440,433,o),
(440,447,cs),
(440,462,o),
(417,472,o),
(387,465,cs),
(337,454,o),
(301,463,o),
(301,503,cs),
(301,549,o),
(356,561,o),
(382,561,cs),
(393,561,o)
);
}
);
width = 600;
}
);
unicode = 118560;
},
{
color = 0;
glyphname = u1CF21;
lastChange = "2023-08-07 16:54:53 +0000";
layers = (
{
layerId = m01;
shapes = (
{
closed = 1;
nodes = (
(345,399,o),
(311,428,o),
(311,477,cs),
(311,529,o),
(349,560,o),
(394,560,cs),
(437,560,o),
(471,531,o),
(471,482,cs),
(471,430,o),
(433,399,o),
(388,399,cs)
);
},
{
closed = 1;
nodes = (
(362,545,o),
(351,520,o),
(351,487,cs),
(351,445,o),
(371,414,o),
(396,414,cs),
(420,414,o),
(431,442,o),
(431,473,cs),
(431,517,o),
(410,545,o),
(385,545,cs)
);
}
);
width = 600;
}
);
unicode = 118561;
},
{
color = 0;
glyphname = u1CF22;
lastChange = "2023-08-07 16:54:53 +0000";
layers = (
{
layerId = m01;
shapes = (
{
closed = 1;
nodes = (
(396,560,o),
(367,531,o),
(345,475,cs),
(323,419,o),
(308,335,o),
(308,308,cs),
(308,282,o),
(321,290,o),
(344,290,c),
(344,332,o),
(358,400,o),
(375,444,c),
(353,426,l),
(360,408,o),
(383,399,o),
(408,399,cs),
(469,399,o),
(508,451,o),
(508,502,cs),
(508,543,o),
(482,560,o),
(445,560,cs)
);
},
{
closed = 1;
nodes = (
(398,543,o),
(436,543,cs),
(457,543,o),
(469,526,o),
(469,499,cs),
(469,464,o),
(450,415,o),
(413,415,cs),
(391,415,o),
(379,432,o),
(379,457,cs),
(379,486,o)
);
},
{
closed = 1;
nodes = (
);
}
);
width = 600;
},
{
associatedMasterId = m01;
background = {
shapes = (
{
closed = 1;
nodes = (
(378,432,o),
(391,430,o),
(397,430,cs),
(432,430,o),
(466,445,o),
(474,492,c),
(475,495,o),
(475,499,o),
(475,502,cs),
(475,528,o),
(459,553,o),
(433,553,cs),
(395,553,o),
(365,507,o),
(345,451,cs),
(325,395,o),
(314,348,o),
(314,306,cs),
(314,298,o),
(319,286,o),
(328,286,c),
(329,286,l),
(339,286,o),
(347,299,o),
(347,307,cs),
(347,325,o),
(350,347,o),
(354,369,cs),
(359,394,o),
(365,418,o),
(372,433,c)
);
},
{
closed = 1;
nodes = (
(389,487,o),
(402,521,o),
(424,521,cs),
(436,521,o),
(445,513,o),
(445,500,cs),
(445,481,o),
(430,464,o),
(423,461,c),
(418,458,o),
(411,457,o),
(404,457,cs),
(398,457,o),
(396,457,o),
(379,461,c)
);
},
{
closed = 1;
nodes = (
(378,432,o),
(391,430,o),
(397,430,cs),
(432,430,o),
(466,445,o),
(474,492,c),
(475,495,o),
(475,499,o),
(475,502,cs),
(475,528,o),
(459,553,o),
(433,553,cs),
(395,553,o),
(365,507,o),
(345,451,cs),
(325,395,o),
(314,348,o),
(314,306,cs),
(314,298,o),
(319,286,o),
(328,286,c),
(329,286,l),
(339,286,o),
(347,299,o),
(347,307,cs),
(347,325,o),
(350,347,o),
(354,369,cs),
(359,394,o),
(365,418,o),
(372,433,c)
);
},
{
closed = 1;
nodes = (
(389,487,o),
(402,521,o),
(424,521,cs),
(436,521,o),
(445,513,o),
(445,500,cs),
(445,481,o),
(430,464,o),
(423,461,c),
(418,458,o),
(411,457,o),
(404,457,cs),
(398,457,o),
(396,457,o),
(379,461,c)
);
}
);
};
layerId = "2E034264-83EA-4A53-9E27-E74862F1DEFE";
name = "14 Jul 23 at 11:54";
shapes = (
{
closed = 1;
nodes = (
(315,290,l),
(353,290,l),
(353,481,ls),
(353,515,o),
(362,545,o),
(383,545,cs),
(408,545,o),
(420,522,o),
(420,496,cs),
(420,477,o),
(414,445,o),
(395,445,cs),
(378,445,o),
(359,450,o),
(342,470,c),
(339,438,l),
(353,434,o),
(370,431,o),
(385,431,cs),
(431,431,o),
(456,461,o),
(456,501,cs),
(456,542,o),
(427,560,o),
(395,560,cs),
(342,560,o),
(315,532,o),
(315,459,cs)
);
}
);
width = 600;
},
{
associatedMasterId = m01;
background = {
shapes = (
{
closed = 1;
nodes = (
(385,399,o),
(351,428,o),
(351,477,cs),
(351,529,o),
(389,560,o),
(434,560,cs),
(477,560,o),
(511,531,o),
(511,482,cs),
(511,430,o),
(473,399,o),
(428,399,cs)
);
},
{
closed = 1;
nodes = (
(402,545,o),
(391,520,o),
(391,487,cs),
(391,445,o),
(411,414,o),
(436,414,cs),
(460,414,o),
(471,442,o),
(471,473,cs),
(471,517,o),
(450,545,o),
(425,545,cs)
);
}
);
};
layerId = "D9410D3D-39F2-43AC-A01C-4B9B45B4A409";
name = "18 Jul 23 at 11:31";
shapes = (
{
closed = 1;
nodes = (
(389,560,o),
(356,518,o),
(337,467,cs),
(311,397,o),
(303,331,o),
(303,301,cs),
(303,284,o),
(328,290,o),
(341,290,c),
(341,332,o),
(353,410,o),
(374,467,c),
(356,453,l),
(363,438,o),
(386,431,o),
(404,431,cs),
(462,431,o),
(494,474,o),
(494,515,cs),
(494,547,o),
(468,560,o),
(440,560,cs)
);
},
{
closed = 1;
nodes = (
(396,525,o),
(413,542,o),
(429,542,cs),
(448,542,o),
(455,527,o),
(455,507,cs),
(455,482,o),
(438,448,o),
(411,448,cs),
(396,448,o),
(371,459,o),
(388,505,cs)
);
},
{
closed = 1;
nodes = (
);
}
);
width = 600;
}
);
unicode = 118562;
},
{
color = 0;
glyphname = u1CF23;
lastChange = "2023-08-07 16:54:53 +0000";
layers = (
{
layerId = m01;
shapes = (
{
closed = 1;
nodes = (
(330,111,l),
(322,93,l),
(822,93,l),
(830,111,l)
);
},
{
closed = 1;
nodes = (
(330,111,l),
(322,93,l),
(822,93,l),
(830,111,l)
);
}
);
width = 600;
}
);
unicode = 118563;
},
{
color = 0;
glyphname = u1CF24;
lastChange = "2023-08-07 16:54:53 +0000";
layers = (
{
layerId = m01;
shapes = (
{
closed = 1;
nodes = (
(517,241,o),
(551,290,o),
(551,325,cs),
(551,343,o),
(542,359,o),
(510,359,cs),
(438,359,o),
(312,279,o),
(312,140,cs),
(312,65,o),
(349,39,o),
(379,39,cs),
(395,39,o),
(401,47,o),
(401,66,c),
(366,66,o),
(351,103,o),
(351,155,cs),
(351,272,o),
(426,330,o),
(488,330,cs),
(506,330,o),
(510,325,o),
(510,313,cs),
(510,276,o),
(469,216,o),
(472,155,cs),
(474,115,o),
(494,90,o),
(540,90,cs),
(578,90,o),
(610,107,o),
(626,148,cs),
(645,199,o),
(626,251,o),
(565,251,cs),
(540,251,o),
(513,242,o),
(498,224,c),
(517,205,l)
);
},
{
closed = 1;
nodes = (
(502,107,o),
(501,157,o),
(514,193,cs),
(523,218,o),
(541,235,o),
(563,235,cs),
(600,235,o),
(601,186,o),
(588,151,cs),
(578,124,o),
(559,107,o),
(538,107,cs)
);
}
);
width = 600;
},
{
associatedMasterId = m01;
background = {
shapes = (
{
closed = 1;
nodes = (
(321,84,o),
(343,47,o),
(383,39,c),
(385,39,o),
(387,38,o),
(388,38,c),
(397,38,o),
(401,43,o),
(401,48,cs),
(401,53,o),
(398,57,o),
(392,60,cs),
(376,68,o),
(354,97,o),
(354,149,cs),
(354,202,o),
(401,259,o),
(440,290,cs),
(453,300,o),
(493,332,o),
(508,332,cs),
(527,332,o),
(531,316,o),
(531,302,cs),
(531,266,o),
(503,220,o),
(483,162,c),
(481,155,o),
(480,149,o),
(480,143,cs),
(480,119,o),
(494,103,o),
(519,103,cs),
(552,103,o),
(578,123,o),
(588,160,c),
(590,166,o),
(590,172,o),
(590,177,cs),
(590,208,o),
(563,217,o),
(544,217,cs),
(539,217,o),
(534,216,o),
(531,215,c),
(531,215,o),
(563,282,o),
(563,311,cs),
(563,341,o),
(558,359,o),
(525,359,cs),
(452,359,o),
(321,219,o),
(321,138,cs)
);
},
{
closed = 1;
nodes = (
(561,154,o),
(556,128,o),
(532,128,cs),
(518,128,o),
(507,141,o),
(507,153,c),
(507,155,o),
(507,157,o),
(508,159,c),
(513,174,o),
(518,184,o),
(521,190,cs),
(523,194,o),
(528,196,o),
(534,196,cs),
(546,196,o),
(561,188,o),
(561,170,cs)
);
},
{
closed = 1;
nodes = (
(321,84,o),
(343,47,o),
(383,39,c),
(385,39,o),
(387,38,o),
(388,38,c),
(397,38,o),
(401,43,o),
(401,48,cs),
(401,53,o),
(398,57,o),
(392,60,cs),
(376,68,o),
(354,97,o),
(354,149,cs),
(354,202,o),
(401,259,o),
(440,290,cs),
(453,300,o),
(493,332,o),
(508,332,cs),
(527,332,o),
(531,316,o),
(531,302,cs),
(531,266,o),
(503,220,o),
(483,162,c),
(481,155,o),
(480,149,o),
(480,143,cs),
(480,119,o),
(494,103,o),
(519,103,cs),
(552,103,o),
(578,123,o),
(588,160,c),
(590,166,o),
(590,172,o),
(590,177,cs),
(590,208,o),
(563,217,o),
(544,217,cs),
(539,217,o),
(534,216,o),
(531,215,c),
(531,215,o),
(563,282,o),
(563,311,cs),
(563,341,o),
(558,359,o),
(525,359,cs),
(452,359,o),
(321,219,o),
(321,138,cs)
);
},
{
closed = 1;
nodes = (
(561,154,o),
(556,128,o),
(532,128,cs),
(518,128,o),
(507,141,o),
(507,153,c),
(507,155,o),
(507,157,o),
(508,159,c),
(513,174,o),
(518,184,o),
(521,190,cs),
(523,194,o),
(528,196,o),
(534,196,cs),
(546,196,o),
(561,188,o),
(561,170,cs)
);
}
);
};
layerId = "43EEB8A0-A3A7-4CA2-B678-376E484DACFD";
name = "18 Jul 23 at 11:36";
shapes = (
{
closed = 1;
nodes = (
(558,271,o),
(558,324,cs),
(558,343,o),
(547,359,o),
(517,359,cs),
(443,359,o),
(317,284,o),
(317,135,cs),
(317,81,o),
(343,39,o),
(386,39,cs),
(400,39,o),
(406,48,o),
(406,66,c),
(371,66,o),
(356,104,o),
(356,152,cs),
(356,273,o),
(428,330,o),
(494,330,cs),
(504,330,o),
(515,331,o),
(515,311,cs),
(515,263,o),
(480,209,o),
(479,149,cs),
(479,112,o),
(504,90,o),
(534,90,cs),
(579,90,o),
(620,117,o),
(620,164,cs),
(620,193,o),
(603,219,o),
(564,219,cs),
(546,219,o),
(524,211,o),
(508,188,c),
(514,138,l),
(520,189,o),
(540,205,o),
(556,205,cs),
(576,205,o),
(580,184,o),
(580,168,cs),
(580,142,o),
(565,106,o),
(542,106,cs),
(520,106,o),
(515,118,o),
(515,136,cs),
(515,193,o)
);
}
);
width = 600;
}
);
unicode = 118564;
},
{
color = 0;
glyphname = u1CF25;
lastChange = "2023-08-07 16:54:53 +0000";
layers = (
{
layerId = m01;
shapes = (
{
closed = 1;
nodes = (
(430,244,l),
(370,198,o),
(347,90,o),
(448,90,cs),
(474,90,o),
(500,96,o),
(516,112,c),
(505,110,l),
(415,14,o),
(356,-67,o),
(314,-132,cs),
(302,-150,o),
(313,-161,o),
(342,-162,c),
(439,-8,o),
(511,64,o),
(674,223,cs),
(689,238,o),
(664,250,o),
(648,249,c),
(539,128,o),
(501,106,o),
(458,106,cs),
(391,106,o),
(414,183,o),
(466,246,c)
);
}
);
width = 600;
},
{
associatedMasterId = m01;
background = {
shapes = (
{
closed = 1;
nodes = (
(306,-157,o),
(310,-163,o),
(316,-163,cs),
(321,-163,o),
(326,-160,o),
(330,-153,c),
(340,-133,o),
(384,-72,o),
(400,-52,cs),
(444,4,o),
(500,62,o),
(546,107,cs),
(556,117,o),
(565,125,o),
(565,132,cs),
(565,140,o),
(556,145,o),
(550,145,cs),
(547,145,o),
(543,144,o),
(540,141,cs),
(518,119,o),
(511,98,o),
(459,98,cs),
(442,98,o),
(434,109,o),
(434,127,cs),
(434,133,o),
(437,140,o),
(437,147,cs),
(437,152,o),
(434,154,o),
(430,154,cs),
(415,154,o),
(408,134,o),
(405,119,c),
(405,114,ls),
(405,90,o),
(428,75,o),
(456,75,cs),
(475,75,o),
(486,81,o),
(486,81,c),
(471,69,o),
(428,20,o),
(404,-7,cs),
(362,-53,o),
(327,-109,o),
(318,-122,cs),
(308,-136,o),
(306,-143,o),
(306,-149,cs)
);
},
{
closed = 1;
nodes = (
(306,-157,o),
(310,-163,o),
(316,-163,cs),
(321,-163,o),
(326,-160,o),
(330,-153,c),
(340,-133,o),
(384,-72,o),
(400,-52,cs),
(444,4,o),
(500,62,o),
(546,107,cs),
(556,117,o),
(565,125,o),
(565,132,cs),
(565,140,o),
(556,145,o),
(550,145,cs),
(547,145,o),
(543,144,o),
(540,141,cs),
(518,119,o),
(511,98,o),
(459,98,cs),
(442,98,o),
(434,109,o),
(434,127,cs),
(434,133,o),
(437,140,o),
(437,147,cs),
(437,152,o),
(434,154,o),
(430,154,cs),
(415,154,o),
(408,134,o),
(405,119,c),
(405,114,ls),
(405,90,o),
(428,75,o),
(456,75,cs),
(475,75,o),
(486,81,o),
(486,81,c),
(471,69,o),
(428,20,o),
(404,-7,cs),
(362,-53,o),
(327,-109,o),
(318,-122,cs),
(308,-136,o),
(306,-143,o),
(306,-149,cs)
);
}
);
};
layerId = "9DF90DCD-EF73-4444-87E5-E5F6FBCEA1BD";
name = "18 Jul 23 at 12:20";
shapes = (
{
closed = 1;
nodes = (
(410,151,l),
(390,128,o),
(388,75,o),
(450,75,cs),
(474,75,o),
(489,80,o),
(501,87,c),
(492,88,l),
(415,10,o),
(355,-68,o),
(314,-132,cs),
(302,-150,o),
(313,-161,o),
(342,-162,c),
(410,-48,o),
(457,9,o),
(574,123,cs),
(589,138,o),
(564,150,o),
(548,149,c),
(517,109,o),
(493,91,o),
(462,91,cs),
(433,91,o),
(434,125,o),
(446,153,c)
);
}
);
width = 600;
}
);
unicode = 118565;
},
{
color = 0;
glyphname = u1CF26;
lastChange = "2023-08-07 16:54:53 +0000";
layers = (
{
layerId = m01;
shapes = (
{
closed = 1;
nodes = (
(350,177,l),
(341,139,o),
(344,90,o),
(380,90,cs),
(431,90,o),
(451,155,o),
(456,193,c),
(478,199,l),
(467,67,o),
(426,-2,o),
(368,-2,cs),
(309,-2,o),
(304,55,o),
(328,171,c)
);
}
);
width = 600;
}
);
unicode = 118566;
},
{
color = 0;
glyphname = u1CF27;
lastChange = "2023-08-07 16:54:53 +0000";
layers = (
{
layerId = m01;
shapes = (
{
closed = 1;
nodes = (
(503,542,o),
(469,571,o),
(469,619,cs),
(469,672,o),
(507,703,o),
(553,703,cs),
(595,703,o),
(629,674,o),
(629,626,cs),
(629,573,o),
(591,542,o),
(545,542,cs)
);
},
{
closed = 1;
nodes = (
(523,688,o),
(509,663,o),
(509,629,cs),
(509,592,o),
(525,557,o),
(557,557,cs),
(575,557,o),
(589,582,o),
(589,616,cs),
(589,653,o),
(573,688,o),
(541,688,cs)
);
},
{
closed = 1;
nodes = (
(391,705,l),
(356,645,o),
(321,597,o),
(286,551,c),
(301,541,l),
(328,581,o),
(358,623,o),
(389,665,c),
(373,666,l),
(391,625,o),
(406,583,o),
(419,541,c),
(456,554,l),
(435,604,o),
(417,650,o),
(401,703,c)
);
}
);
width = 600;
}
);
unicode = 118567;
},
{
color = 0;
glyphname = u1CF2A;
lastChange = "2023-08-07 16:54:53 +0000";
layers = (
{
layerId = m01;
shapes = (
{
closed = 1;
nodes = (
(367,552,o),
(386,548,o),
(396,548,c),
(407,574,o),
(424,592,o),
(462,592,cs),
(486,592,o),
(507,580,o),
(507,553,cs),
(507,523,o),
(486,509,o),
(448,509,cs),
(439,509,o),
(439,500,o),
(446,494,c),
(483,494,o),
(531,467,o),
(531,414,cs),
(531,382,o),
(511,351,o),
(326,351,cs),
(312,351,o),
(309,332,o),
(318,317,c),
(477,317,o),
(560,369,o),
(560,439,cs),
(560,494,o),
(507,509,o),
(475,509,c),
(474,505,l),
(501,505,o),
(543,523,o),
(543,564,cs),
(543,596,o),
(519,611,o),
(472,611,cs),
(423,611,o),
(388,580,o),
(378,567,cs)
);
}
);
width = 600;
}
);
unicode = 118570;
},
{
color = 0;
glyphname = u1CF2B;
lastChange = "2023-08-07 16:54:53 +0000";
layers = (
{
layerId = m01;
shapes = (
{
closed = 1;
nodes = (
(548,588,l),
(517,629,o),
(503,661,o),
(490,702,c),
(456,693,l),
(470,662,o),
(501,621,o),
(525,596,c),
(338,596,l),
(338,581,l),
(544,581,l)
);
}
);
width = 600;
},
{
associatedMasterId = m01;
background = {
shapes = (
{
closed = 1;
nodes = (
(555,581,l),
(495,699,l),
(457,699,l),
(537,581,l)
);
},
{
closed = 1;
nodes = (
(555,581,l),
(544,596,l),
(338,596,l),
(338,581,l)
);
}
);
};
layerId = "6A14E79C-16B2-4772-93E8-3B23C901390D";
name = "18 Jul 23 at 12:31";
shapes = (
{
closed = 1;
nodes = (
(555,581,l),
(495,699,l),
(457,699,l),
(537,581,l)
);
},
{
closed = 1;
nodes = (
(555,581,l),
(544,596,l),
(338,596,l),
(338,581,l)
);
}
);
width = 600;
}
);
unicode = 118571;
},
{
color = 0;
glyphname = u1CF2D;
lastChange = "2023-08-07 16:54:53 +0000";
layers = (
{
layerId = m01;
shapes = (
{
closed = 1;
nodes = (
(329,185,l),
(390,241,o),
(451,296,o),
(514,348,c),
(501,364,l),
(440,308,o),
(378,253,o),
(315,201,c)
);
},
{
closed = 1;
nodes = (
(387,286,o),
(414,259,o),
(442,227,c),
(466,247,l),
(439,270,o),
(412,297,o),
(385,330,c),
(361,310,l)
);
}
);
width = 600;
}
);
unicode = 118573;
},
{
color = 11;
glyphname = u1CF30;
lastChange = "2023-08-07 16:54:53 +0000";
layers = (
{
layerId = m01;
shapes = (
{
closed = 1;
nodes = (
(389,502,o),
(419,525,o),
(445,538,c),
(454,662,l),
(420,642,o),
(392,622,o),
(369,595,c),
(360,471,l)
);
}
);
width = 510;
}
);
unicode = 118576;
},
{
color = 11;
glyphname = u1CF35;
lastChange = "2023-08-07 16:54:53 +0000";
layers = (
{
layerId = m01;
shapes = (
{
closed = 1;
nodes = (
(48,330,o),
(56,332,o),
(63,333,c),
(71,433,o),
(80,532,o),
(92,632,c),
(84,628,o),
(76,626,o),
(69,624,c),
(61,524,o),
(52,427,o),
(40,327,c)
);
}
);
width = 120;
}
);
unicode = 118581;
},
{
color = 11;
glyphname = u1CF36;
lastChange = "2023-08-07 16:54:53 +0000";
layers = (
{
layerId = m01;
shapes = (
{
closed = 1;
nodes = (
(39,-18,o),
(45,-16,o),
(54,-19,c),
(44,-57,o),
(47,-106,o),
(90,-106,cs),
(146,-106,o),
(168,-41,o),
(172,-5,cs),
(173,3,o),
(180,6,o),
(188,3,c),
(177,-129,o),
(136,-198,o),
(78,-198,cs),
(19,-198,o),
(14,-141,o),
(37,-26,cs)
);
}
);
width = 240;
}
);
unicode = 118582;
},
{
color = 11;
glyphname = u1CF37;
lastChange = "2023-08-07 16:54:53 +0000";
layers = (
{
layerId = m01;
shapes = (
{
closed = 1;
nodes = (
(98,-146,l),
(79,-283,l),
(57,-289,l),
(76,-151,l)
);
},
{
ref = u1CF36;
}
);
width = 240;
}
);
unicode = 118583;
},
{
color = 11;
glyphname = u1CF3B;
lastChange = "2023-08-07 16:54:53 +0000";
layers = (
{
layerId = m01;
shapes = (
{
closed = 1;
nodes = (
(152,703,l),
(133,566,l),
(111,560,l),
(130,698,l)
);
},
{
pos = (27,679);
ref = u1CF36;
}
);
width = 270;
}
);
unicode = 118587;
},
{
color = 11;
glyphname = u1CF3C;
lastChange = "2023-08-07 16:54:53 +0000";
layers = (
{
layerId = m01;
shapes = (
{
closed = 1;
nodes = (
(192,197,l),
(201,301,l),
(79,374,l),
(70,270,l)
);
}
);
width = 257;
}
);
unicode = 118588;
},
{
color = 11;
glyphname = u1CF3F;
lastChange = "2023-08-07 16:54:53 +0000";
layers = (
{
layerId = m01;
shapes = (
{
closed = 1;
nodes = (
(174,204,o),
(165,202,o),
(166,212,cs),
(181,385,o),
(159,459,o),
(105,459,cs),
(70,459,o),
(53,437,o),
(44,394,c),
(36,389,o),
(29,389,o),
(30,397,cs),
(38,496,o),
(70,551,o),
(125,551,cs),
(207,551,o),
(213,448,o),
(181,208,c)
);
}
);
width = 250;
}
);
unicode = 118591;
},
{
color = 11;
glyphname = u1CF41;
lastChange = "2023-08-07 16:54:53 +0000";
layers = (
{
layerId = m01;
shapes = (
{
closed = 1;
nodes = (
(44,-64,l),
(184,-64,l),
(184,-20,l),
(44,-20,l)
);
}
);
width = 600;
}
);
unicode = 118593;
},
{
color = 11;
glyphname = u1CF42;
lastChange = "2023-08-07 16:54:53 +0000";
layers = (
{
layerId = m01;
shapes = (
{
ref = dottedCircle;
},
{
closed = 1;
nodes = (
(74,63,l),
(83,167,l),
(-1,220,l),
(-10,116,l)
);
}
);
width = 600;
}
);
unicode = 118594;
},
{
color = 11;
glyphname = u1CF43;
lastChange = "2023-08-07 16:54:53 +0000";
layers = (
{
layerId = m01;
shapes = (
{
ref = dottedCircle;
},
{
closed = 1;
nodes = (
(125,455,l),
(134,559,l),
(50,612,l),
(41,508,l)
);
}
);
width = 600;
}
);
unicode = 118595;
},
{
color = 11;
glyphname = u1CF44;
lastChange = "2023-08-07 16:54:53 +0000";
layers = (
{
layerId = m01;
shapes = (
{
ref = dottedCircle;
},
{
closed = 1;
nodes = (
(407,480,o),
(436,503,o),
(469,521,c),
(478,635,l),
(445,617,o),
(416,594,o),
(393,568,c),
(384,454,l)
);
}
);
width = 600;
}
);
unicode = 118596;
},
{
color = 11;
glyphname = u1CF46;
lastChange = "2023-08-07 16:54:53 +0000";
layers = (
{
layerId = m01;
shapes = (
{
ref = dottedCircle;
},
{
closed = 1;
nodes = (
(124,528,o),
(139,515,o),
(173,489,cs),
(186,479,o),
(226,503,o),
(219,510,cs),
(205,524,o),
(165,560,o),
(135,569,cs),
(125,572,o),
(78,550,o),
(93,543,cs)
);
}
);
width = 600;
}
);
unicode = 118598;
},
{
color = 11;
glyphname = u1CF52;
lastChange = "2023-08-07 16:54:53 +0000";
layers = (
{
layerId = m01;
shapes = (
{
alignment = -1;
ref = _vert.stem;
},
{
alignment = -1;
ref = _haczek;
},
{
closed = 1;
nodes = (
(62,357,l),
(43,340,o),
(25,323,o),
(9,304,c),
(0,190,l),
(18,212,o),
(40,232,o),
(64,249,c)
);
},
{
closed = 1;
nodes = (
(95,409,o),
(127,434,o),
(163,449,c),
(172,563,l),
(131,545,o),
(95,515,o),
(67,481,c),
(70,380,l)
);
}
);
width = 600;
}
);
unicode = 118610;
},
{
color = 11;
glyphname = u1CF53;
lastChange = "2023-08-07 16:54:53 +0000";
layers = (
{
layerId = m01;
shapes = (
{
closed = 1;
nodes = (
(228,299,l),
(240,395,o),
(251,491,o),
(255,587,c),
(230,572,l),
(224,473,o),
(214,374,o),
(202,275,c)
);
},
{
alignment = -1;
ref = _vert.stem;
},
{
alignment = -1;
ref = _haczek;
},
{
closed = 1;
nodes = (
(315,379,l),
(324,455,o),
(331,531,o),
(335,607,c),
(310,592,l),
(305,513,o),
(298,434,o),
(289,355,c)
);
}
);
width = 600;
}
);
unicode = 118611;
},
{
color = 11;
glyphname = u1CF54;
lastChange = "2023-08-07 16:54:53 +0000";
layers = (
{
layerId = m01;
shapes = (
{
alignment = -1;
ref = _vert.stem;
},
{
alignment = -1;
ref = _haczek;
},
{
pos = (266,-79);
ref = u1CF35;
},
{
closed = 1;
nodes = (
(366,422,l),
(358,432,l),
(236,510,l),
(217,422,l),
(304,369,l),
(310,360,l),
(429,284,l),
(448,373,l)
);
}
);
width = 600;
}
);
unicode = 118612;
},
{
color = 11;
glyphname = u1CF55;
lastChange = "2023-08-07 16:54:53 +0000";
layers = (
{
layerId = m01;
shapes = (
{
alignment = -1;
pos = (80,0);
ref = _vert.stem;
},
{
alignment = -1;
pos = (80,0);
ref = _haczek;
},
{
closed = 1;
nodes = (
(59,460,l),
(49,399,l),
(143,292,l),
(153,353,l)
);
},
{
closed = 1;
nodes = (
(115,325,o),
(85,334,o),
(69,334,cs),
(55,334,o),
(44,329,o),
(35,321,c),
(27,267,l),
(38,280,o),
(50,283,o),
(60,283,cs),
(77,283,o),
(105,272,o),
(141,236,c),
(151,287,l)
);
}
);
width = 680;
}
);
unicode = 118613;
},
{
color = 11;
glyphname = u1CF5B;
lastChange = "2023-08-07 16:54:53 +0000";
layers = (
{
layerId = m01;
shapes = (
{
closed = 1;
nodes = (
(184,263,l),
(145,260,o),
(97,226,o),
(40,143,c),
(17,2,l),
(77,91,o),
(124,123,o),
(159,125,c)
);
},
{
ref = _vert.stem;
},
{
pos = (175,-99);
ref = u1CF3F;
}
);
width = 600;
}
);
unicode = 118619;
},
{
color = 11;
glyphname = u1CF5D;
lastChange = "2023-08-07 16:54:53 +0000";
layers = (
{
layerId = m01;
shapes = (
{
closed = 1;
nodes = (
(187,3,o),
(174,1,o),
(175,11,cs),
(190,163,o),
(177,218,o),
(136,218,cs),
(87,218,o),
(66,144,o),
(51,-39,c),
(42,-44,o),
(29,-44,o),
(30,-36,cs),
(50,209,o),
(74,310,o),
(149,310,cs),
(212,310,o),
(232,231,o),
(195,7,c)
);
}
);
width = 244;
}
);
unicode = 118621;
},
{
color = 11;
glyphname = u1CF6F;
lastChange = "2023-08-07 16:54:53 +0000";
layers = (
{
layerId = m01;
shapes = (
{
closed = 1;
nodes = (
(182,153,o),
(152,94,o),
(86,94,cs),
(43,94,o),
(40,143,o),
(50,181,c),
(41,184,o),
(35,182,o),
(33,174,cs),
(10,59,o),
(15,2,o),
(74,2,cs),
(139,2,o),
(203,86,o),
(203,252,cs),
(203,305,o),
(169,342,o),
(126,387,cs),
(87,428,o),
(82,475,o),
(92,513,c),
(83,516,o),
(77,514,o),
(75,506,cs),
(52,391,o),
(61,335,o),
(100,296,cs),
(176,220,o),
(182,213,o),
(182,186,cs)
);
}
);
width = 233;
}
);
unicode = 118639;
},
{
color = 11;
glyphname = u1CF7E;
lastChange = "2023-08-07 16:54:53 +0000";
layers = (
{
layerId = m01;
shapes = (
{
closed = 1;
nodes = (
(290,79,o),
(281,77,o),
(282,87,cs),
(297,260,o),
(274,334,o),
(211,334,cs),
(176,334,o),
(149,309,o),
(138,261,c),
(130,256,o),
(123,256,o),
(124,264,cs),
(139,384,o),
(170,456,o),
(237,456,cs),
(328,456,o),
(335,344,o),
(297,83,c)
);
},
{
alignment = -1;
ref = _steep.rombus;
},
{
alignment = -1;
pos = (127,0);
ref = _steep.rombus;
}
);
width = 329;
}
);
unicode = 118654;
},
{
color = 11;
glyphname = u1CF81;
lastChange = "2023-08-07 16:54:53 +0000";
layers = (
{
layerId = m01;
shapes = (
{
closed = 1;
nodes = (
(65,222,o),
(121,253,o),
(185,263,c),
(196,383,l),
(132,373,o),
(75,343,o),
(31,294,c),
(20,174,l)
);
},
{
closed = 1;
nodes = (
(71,-12,o),
(79,-10,o),
(86,-9,c),
(101,159,o),
(117,328,o),
(135,496,c),
(127,492,o),
(119,490,o),
(112,488,c),
(97,319,o),
(82,154,o),
(63,-15,c)
);
}
);
width = 216;
}
);
unicode = 118657;
},
{
color = 11;
glyphname = u1CF83;
lastChange = "2023-08-07 16:54:53 +0000";
layers = (
{
layerId = m01;
shapes = (
{
closed = 1;
nodes = (
(198,156,o),
(242,337,o),
(109,541,c),
(28,365,o),
(-16,184,o),
(117,-20,c)
);
},
{
closed = 1;
nodes = (
(151,351,o),
(178,222,o),
(133,77,c),
(142,76,l),
(74,170,o),
(49,298,o),
(93,444,c),
(85,444,l)
);
},
{
closed = 1;
nodes = (
(84,197,o),
(120,227,o),
(161,245,c),
(170,359,l),
(129,341,o),
(93,311,o),
(65,277,c),
(56,163,l)
);
}
);
width = 226;
}
);
unicode = 118659;
},
{
color = 11;
glyphname = u1CF84;
lastChange = "2023-08-07 16:54:53 +0000";
layers = (
{
layerId = m01;
shapes = (
{
closed = 1;
nodes = (
(242,283,o),
(281,249,o),
(327,155,c),
(357,225,l),
(320,299,o),
(277,351,o),
(196,351,cs),
(118,351,o),
(33,279,o),
(33,166,cs),
(33,71,o),
(94,-6,o),
(179,-6,cs),
(200,-6,o),
(221,3,o),
(248,16,cs),
(255,20,o),
(255,31,o),
(250,43,c),
(234,42,o),
(220,37,o),
(204,37,cs),
(179,37,o),
(113,69,o),
(113,166,cs),
(113,239,o),
(152,283,o),
(206,283,cs)
);
},
{
closed = 1;
nodes = (
(502,283,o),
(541,238,o),
(541,166,cs),
(541,69,o),
(475,37,o),
(450,37,cs),
(434,37,o),
(420,42,o),
(404,43,c),
(399,31,o),
(399,20,o),
(406,16,cs),
(433,3,o),
(454,-6,o),
(475,-6,cs),
(560,-6,o),
(621,71,o),
(621,166,cs),
(621,279,o),
(536,351,o),
(458,351,cs),
(377,351,o),
(335,298,o),
(297,226,c),
(327,156,l),
(373,249,o),
(412,283,o),
(448,283,cs)
);
}
);
width = 654;
}
);
unicode = 118660;
},
{
color = 11;
glyphname = u1CF85;
lastChange = "2023-08-07 16:54:53 +0000";
layers = (
{
layerId = m01;
shapes = (
{
closed = 1;
nodes = (
(71,174,l),
(43,64,l),
(206,-19,l),
(234,91,l)
);
},
{
closed = 1;
nodes = (
(81,366,l),
(54,256,l),
(217,172,l),
(245,283,l)
);
},
{
closed = 1;
nodes = (
(92,557,l),
(65,447,l),
(228,364,l),
(256,474,l)
);
}
);
width = 299;
}
);
unicode = 118661;
},
{
color = 11;
glyphname = u1CF93;
lastChange = "2023-08-07 16:54:53 +0000";
layers = (
{
layerId = m01;
shapes = (
{
alignment = -1;
pos = (-288,-317);
ref = _curve;
},
{
alignment = -1;
pos = (-223,-60);
ref = _curve;
},
{
alignment = -1;
pos = (240,0);
ref = _haczek;
},
{
closed = 1;
nodes = (
(525,17,l),
(535,157,o),
(555,296,o),
(575,435,c),
(540,332,l),
(524,223,o),
(506,112,o),
(500,2,c)
);
}
);
width = 856;
}
);
unicode = 118675;
},
{
color = 11;
glyphname = u1CFA1;
lastChange = "2023-08-07 16:54:53 +0000";
layers = (
{
layerId = m01;
shapes = (
{
alignment = -1;
pos = (-10,-90);
ref = _arch2;
},
{
alignment = -1;
pos = (50,200);
ref = _steep.rombus;
},
{
alignment = -1;
pos = (168,2);
ref = _steep.rombus;
},
{
closed = 1;
nodes = (
(272,223,l),
(540,509,o),
(642,588,o),
(687,588,cs),
(707,588,o),
(738,554,o),
(751,518,c),
(776,632,l),
(756,697,o),
(730,715,o),
(708,715,cs),
(653,715,o),
(512,593,o),
(295,364,c)
);
}
);
width = 600;
}
);
unicode = 118689;
},
{
color = 11;
glyphname = u1CFB2;
lastChange = "2023-08-07 16:54:53 +0000";
layers = (
{
layerId = m01;
shapes = (
{
alignment = -1;
pos = (13,0);
ref = _vert.stem;
},
{
closed = 1;
nodes = (
(64,36,o),
(107,66,o),
(157,84,c),
(166,198,l),
(121,182,o),
(82,156,o),
(50,127,c),
(30,2,l)
);
},
{
pos = (-160,-369);
ref = u1CF30;
},
{
pos = (-31,-279);
ref = u1CF30;
},
{
closed = 1;
nodes = (
(452,270,l),
(720,556,o),
(822,635,o),
(867,635,cs),
(887,635,o),
(918,601,o),
(931,565,c),
(956,679,l),
(936,744,o),
(910,762,o),
(888,762,cs),
(833,762,o),
(692,640,o),
(475,411,c)
);
},
{
closed = 1;
nodes = (
(500,617,l),
(490,502,o),
(471,386,o),
(452,270,c),
(487,373,l),
(502,459,o),
(519,546,o),
(525,632,c)
);
}
);
width = 986;
}
);
unicode = 118706;
},
{
color = 11;
glyphname = u1CFBB;
lastChange = "2023-08-07 16:54:53 +0000";
layers = (
{
layerId = m01;
shapes = (
{
pos = (160,0);
ref = u1CFA1;
},
{
alignment = -1;
pos = (-19,-118);
ref = _arch2;
},
{
closed = 1;
nodes = (
(480,570,l),
(470,455,o),
(451,339,o),
(432,223,c),
(467,326,l),
(482,412,o),
(499,499,o),
(505,585,c)
);
}
);
width = 966;
}
);
unicode = 118715;
},
{
color = 11;
glyphname = u1CFBF;
lastChange = "2023-08-07 16:54:53 +0000";
layers = (
{
layerId = m01;
shapes = (
{
closed = 1;
nodes = (
(86,-40,o),
(183,42,o),
(275,121,cs),
(361,196,o),
(443,269,o),
(482,202,cs),
(500,172,o),
(489,147,o),
(457,116,c),
(456,107,o),
(459,102,o),
(466,106,cs),
(547,163,o),
(579,218,o),
(551,265,cs),
(505,345,o),
(409,264,o),
(318,184,cs),
(231,109,o),
(149,36,o),
(110,104,cs),
(92,134,o),
(103,160,o),
(135,189,c),
(136,198,o),
(132,204,o),
(125,199,cs),
(44,143,o),
(12,88,o),
(40,40,cs)
);
}
);
width = 600;
}
);
unicode = 118719;
},
{
color = 11;
glyphname = u1CFC0;
lastChange = "2023-08-07 16:54:53 +0000";
layers = (
{
layerId = m01;
shapes = (
{
closed = 1;
nodes = (
(33,225,l),
(115,283,o),
(213,316,o),
(308,316,cs),
(449,316,o),
(566,246,o),
(621,73,c),
(548,50,l),
(505,202,o),
(426,261,o),
(309,261,cs),
(231,261,o),
(156,235,o),
(77,170,c)
);
}
);
width = 640;
}
);
unicode = 118720;
},
{
color = 11;
glyphname = u1CFC1;
lastChange = "2023-08-07 16:54:53 +0000";
layers = (
{
layerId = m01;
shapes = (
{
closed = 1;
nodes = (
(236,156,o),
(280,337,o),
(147,541,c),
(66,365,o),
(22,184,o),
(155,-20,c)
);
},
{
closed = 1;
nodes = (
(189,351,o),
(216,222,o),
(171,77,c),
(180,76,l),
(112,170,o),
(87,298,o),
(131,444,c),
(123,444,l)
);
},
{
closed = 1;
nodes = (
(80,330,l),
(65,317,o),
(51,303,o),
(39,288,c),
(30,174,l),
(48,196,o),
(70,216,o),
(94,233,c)
);
},
{
closed = 1;
nodes = (
(222,184,l),
(237,197,o),
(251,211,o),
(263,226,c),
(272,340,l),
(254,318,o),
(232,298,o),
(208,281,c)
);
}
);
width = 302;
}
);
unicode = 118721;
},
{
color = 11;
glyphname = u1CFC2;
lastChange = "2023-08-07 16:54:53 +0000";
layers = (
{
layerId = m01;
shapes = (
{
closed = 1;
nodes = (
(38,-12,o),
(46,-10,o),
(53,-9,c),
(68,159,o),
(84,328,o),
(102,496,c),
(94,492,o),
(86,490,o),
(79,488,c),
(64,319,o),
(49,154,o),
(30,-15,c)
);
},
{
closed = 1;
nodes = (
(91,428,l),
(73,334,l),
(236,250,l),
(255,345,l)
);
},
{
closed = 1;
nodes = (
(211,-12,o),
(219,-10,o),
(226,-9,c),
(241,159,o),
(257,328,o),
(275,496,c),
(267,492,o),
(259,490,o),
(252,488,c),
(237,319,o),
(222,154,o),
(203,-15,c)
);
},
{
closed = 1;
nodes = (
(69,231,l),
(51,137,l),
(214,53,l),
(233,148,l)
);
}
);
width = 305;
}
);
unicode = 118722;
},
{
export = 0;
glyphname = _arch2;
lastChange = "2023-08-07 16:54:53 +0000";
layers = (
{
layerId = m01;
shapes = (
{
closed = 1;
nodes = (
(142,-27,o),
(131,-29,o),
(132,-19,cs),
(144,118,o),
(129,176,o),
(97,176,cs),
(69,176,o),
(55,146,o),
(48,87,c),
(38,82,o),
(29,82,o),
(30,90,cs),
(40,206,o),
(63,271,o),
(109,271,cs),
(169,271,o),
(173,183,o),
(150,-23,c)
);
}
);
width = 193;
}
);
},
{
export = 0;
glyphname = _circlefordotted;
lastChange = "2023-06-26 16:04:54 +0000";
layers = (
{
layerId = m01;
shapes = (
{
closed = 1;
nodes = (
(326,424,o),
(343,440,o),
(343,462,cs),
(343,484,o),
(326,500,o),
(305,500,cs),
(284,500,o),
(267,484,o),
(267,462,cs),
(267,440,o),
(284,424,o),
(305,424,cs)
);
}
);
width = 600;
}
);
},
{
export = 0;
glyphname = _cmark;
lastChange = "2023-07-18 11:34:43 +0000";
layers = (
{
background = {
shapes = (
{
closed = 1;
nodes = (
(350,557,o),
(306,532,o),
(306,480,cs),
(306,426,o),
(348,402,o),
(389,402,cs),
(416,402,o),
(442,413,o),
(460,430,c),
(440,451,l),
(426,431,o),
(410,420,o),
(392,420,cs),
(367,420,o),
(344,441,o),
(344,479,cs),
(344,513,o),
(364,539,o),
(392,539,cs),
(409,539,o),
(424,530,o),
(435,512,c),
(455,533,l),
(438,550,o),
(416,557,o),
(389,557,cs)
);
}
);
};
layerId = m01;
shapes = (
{
closed = 1;
nodes = (
(460,435,l),
(442,409,o),
(416,399,o),
(384,399,cs),
(339,399,o),
(304,428,o),
(304,477,cs),
(304,529,o),
(343,560,o),
(390,560,cs),
(414,560,o),
(435,554,o),
(452,540,c),
(426,512,l),
(414,534,o),
(398,545,o),
(381,545,cs),
(356,545,o),
(344,520,o),
(344,487,cs),
(344,445,o),
(365,414,o),
(392,414,cs),
(411,414,o),
(423,433,o),
(428,453,c)
);
}
);
width = 600;
},
{
associatedMasterId = m01;
layerId = "6E5C9794-254C-4B2D-94C7-33090DF9C6EC";
name = "18 Jul 23 at 12:33";
shapes = (
{
closed = 1;
nodes = (
(350,557,o),
(306,532,o),
(306,480,cs),
(306,426,o),
(348,402,o),
(389,402,cs),
(416,402,o),
(442,413,o),
(460,430,c),
(440,451,l),
(426,431,o),
(410,420,o),
(392,420,cs),
(367,420,o),
(344,441,o),
(344,479,cs),
(344,513,o),
(364,539,o),
(392,539,cs),
(409,539,o),
(424,530,o),
(435,512,c),
(455,533,l),
(438,550,o),
(416,557,o),
(389,557,cs)
);
}
);
width = 600;
}
);
},
{
export = 0;
glyphname = _comma;
lastChange = "2023-08-07 13:31:25 +0000";
layers = (
{
layerId = m01;
shapes = (
{
closed = 1;
nodes = (
(124,142,o),
(132,275,o),
(110,335,c),
(31,227,l),
(48,153,o),
(42,73,o),
(30,-9,c),
(33,-9,l),
(57,23,o),
(79,56,o),
(99,88,c)
);
}
);
width = 153;
}
);
},
{
export = 0;
glyphname = _curve;
lastChange = "2023-08-07 10:46:14 +0000";
layers = (
{
layerId = m01;
shapes = (
{
closed = 1;
nodes = (
(352,241,o),
(395,271,o),
(445,289,c),
(454,403,l),
(404,385,o),
(361,355,o),
(327,321,c),
(318,207,l)
);
}
);
width = 484;
}
);
},
{
color = 0;
export = 0;
glyphname = _dotaboveclr;
lastChange = "2023-06-22 11:49:05 +0000";
layers = (
{
layerId = m01;
shapes = (
{
closed = 1;
nodes = (
(483,586,o),
(494,597,o),
(494,612,cs),
(494,626,o),
(485,634,o),
(475,634,cs),
(463,634,o),
(452,623,o),
(452,608,cs),
(452,594,o),
(461,586,o),
(471,586,cs)
);
}
);
width = 600;
}
);
},
{
export = 0;
glyphname = _haczek;
lastChange = "2023-06-26 16:25:57 +0000";
layers = (
{
layerId = m01;
shapes = (
{
closed = 1;
nodes = (
(17,2,l),
(327,355,o),
(445,452,o),
(497,452,cs),
(517,452,o),
(548,418,o),
(561,382,c),
(586,496,l),
(566,561,o),
(540,579,o),
(518,579,cs),
(454,579,o),
(291,428,o),
(40,143,c)
);
}
);
width = 600;
}
);
},
{
export = 0;
glyphname = _lilcoma;
lastChange = "2023-08-07 16:54:53 +0000";
layers = (
{
layerId = m01;
shapes = (
{
closed = 1;
nodes = (
(374,3,o),
(388,-5,o),
(379,-17,cs),
(365,-35,o),
(349,-67,o),
(340,-97,c),
(324,-97,o),
(307,-90,o),
(311,-77,cs),
(317,-56,o),
(336,-24,o),
(356,1,c)
);
}
);
width = 600;
}
);
},
{
export = 0;
glyphname = _rect;
lastChange = "2023-08-07 10:36:39 +0000";
layers = (
{
layerId = m01;
shapes = (
{
closed = 1;
nodes = (
(73,580,l),
(67,481,l),
(202,417,l),
(209,517,l)
);
}
);
width = 600;
}
);
},
{
export = 0;
glyphname = _revs;
lastChange = "2023-08-07 16:54:53 +0000";
layers = (
{
layerId = m01;
shapes = (
{
closed = 1;
nodes = (
(195,-5,o),
(227,50,o),
(235,149,cs),
(236,157,o),
(229,157,o),
(221,152,c),
(212,109,o),
(195,87,o),
(166,87,cs),
(96,87,o),
(122,192,o),
(151,302,cs),
(193,461,o),
(199,551,o),
(125,551,cs),
(70,551,o),
(38,496,o),
(30,397,cs),
(29,389,o),
(36,389,o),
(44,394,c),
(53,437,o),
(70,459,o),
(99,459,cs),
(169,459,o),
(143,354,o),
(114,244,cs),
(72,85,o),
(66,-5,o),
(140,-5,cs)
);
}
);
width = 265;
}
);
},
{
color = 0;
export = 0;
glyphname = _stem;
lastChange = "2023-08-07 16:54:53 +0000";
layers = (
{
guides = (
{
pos = (262,402);
},
{
pos = (262,557);
}
);
layerId = m01;
shapes = (
{
closed = 1;
nodes = (
(340,506,o),
(339,448,o),
(338,402,c),
(351,400,o),
(363,402,o),
(376,402,c),
(374,456,o),
(375,511,o),
(376,556,c),
(363,558,o),
(351,556,o),
(338,556,c)
);
}
);
width = 600;
},
{
associatedMasterId = m01;
guides = (
{
pos = (262,402);
},
{
pos = (262,557);
}
);
layerId = "CCA0647A-8FFC-4BF0-9CB4-475CDA4E03C3";
name = "18 Jul 23 at 10:52";
shapes = (
{
closed = 1;
nodes = (
(338,402,l),
(376,402,l),
(376,557,l),
(338,557,l)
);
}
);
width = 600;
}
);
},
{
export = 0;
glyphname = _steep.rombus;
lastChange = "2023-08-07 16:54:53 +0000";
layers = (
{
layerId = m01;
shapes = (
{
closed = 1;
nodes = (
(43,232,l),
(20,101,l),
(101,1,l),
(124,133,l)
);
}
);
width = 260;
}
);
},
{
export = 0;
glyphname = _vert.stem;
lastChange = "2023-08-07 16:54:53 +0000";
layers = (
{
layerId = m01;
shapes = (
{
closed = 1;
nodes = (
(67,481,l),
(57,321,o),
(37,162,o),
(17,2,c),
(52,105,l),
(68,235,o),
(86,366,o),
(92,496,c)
);
}
